<?xml version="1.0" encoding="UTF-8"?>
<svg xmlns="http://www.w3.org/2000/svg" viewBox="0 0 32 32">
  <defs>
    <style>
      .cls-1 {
        fill: #fff;
      }
    </style>
  </defs>
  <rect class="cls-1" width="32" height="32"/>
  <g id="Calque_1" data-name="Calque 1">
    <rect class="cls-1" x="-.02" y=".04" width="32.16" height="31.99"/>
    <g>
      <path d="M14.5,8.84c1.56-.21,3.23.03,4.15,1.43l6.32,10.89c.32,1.3-.47,2.44-1.85,2.36-.89-.05-1.21-.58-1.63-1.25-1.15-1.84-2.24-4.35-3.48-6.02-.72-.96-1.75-1.36-2.94-1.22-2.43.29-2.66,3.83-4.62,4.02-1.73.17-2.52-1.35-1.75-2.83,1.08-2.07,2.58-4.09,3.73-6.13.48-.6,1.29-1.14,2.07-1.24Z"/>
      <circle cx="15.51" cy="20.79" r="1.9"/>
    </g>
  </g>
</svg>