<?xml version="1.0" encoding="UTF-8"?>
<svg id="Calque_2" data-name="Calque 2" xmlns="http://www.w3.org/2000/svg" viewBox="0 0 389.28 88.29">
  <defs>
    <style>
      .cls-1 {
        letter-spacing: 0em;
      }

      .cls-2 {
        letter-spacing: 0em;
      }

      .cls-3 {
        font-family: MyriadPro-Regular, 'Myriad Pro';
        font-size: 18.38px;
      }

      .cls-3, .cls-4 {
        fill: #212121;
      }

      .cls-5 {
        letter-spacing: 0em;
      }

      .cls-6 {
        letter-spacing: -.04em;
      }

      .cls-7 {
        letter-spacing: 0em;
      }

      .cls-8 {
        letter-spacing: 0em;
      }

      .cls-9 {
        letter-spacing: 0em;
      }

      .cls-10 {
        letter-spacing: 0em;
      }
    </style>
  </defs>
  <g id="Calque_1-2" data-name="Calque 1">
    <g>
      <g>
        <path class="cls-4" d="M124.32,59.55c-4.35,0-7.77-1.11-10.17-3.29-2.44-2.22-3.68-5.39-3.68-9.41v-1.19c0-4.17,1.35-7.36,4-9.47,2.53-2.01,6.34-3.36,11.66-4.12l10.6-1.51c-.1-2.46-.78-4.31-2.01-5.47-1.37-1.29-3.67-1.94-6.86-1.94-2.7,0-5.21.39-7.44,1.15-2.3.79-4.36,1.72-6.13,2.76l-2.58,1.51,1.02-9.39.63-.38c1.1-.67,2.42-1.33,3.91-1.97,1.52-.65,3.27-1.2,5.21-1.63,1.95-.43,4.12-.65,6.44-.65,3.04,0,5.67.38,7.84,1.13,2.24.78,4.09,1.92,5.5,3.41,1.4,1.48,2.44,3.29,3.08,5.37.62,2,.93,4.26.93,6.7v27.53h-9.68l.12-4.15c-1.15,1.42-2.67,2.59-4.51,3.49-2.09,1.02-4.75,1.53-7.9,1.53ZM127.37,39.85c-3.48.5-5.11,1.32-5.87,1.93-.95.76-1.42,1.91-1.42,3.5v.66c0,1.67.47,2.89,1.44,3.72,1.02.88,2.66,1.32,4.89,1.32,2.07,0,3.84-.35,5.28-1.04,1.42-.69,2.58-1.62,3.45-2.77.69-.91,1.21-1.92,1.55-3v-5.68l-9.32,1.35Z"/>
        <path class="cls-4" d="M170.32,59.55c-5.27,0-9.37-1.69-12.18-5.02-2.75-3.25-4.14-7.99-4.14-14.06v-6.63c0-6.1,1.41-10.87,4.18-14.17,2.84-3.38,7.02-5.09,12.43-5.09,2.68,0,5.05.47,7.05,1.39,1.88.87,3.45,2.08,4.68,3.6l-.06-3.84V1.11h9.63v57.57h-9.72l.12-4.13c-1.17,1.44-2.68,2.62-4.49,3.5-2.03.99-4.56,1.49-7.52,1.49ZM172.67,23.02c-2.99,0-5.18.81-6.69,2.47-1.53,1.68-2.31,4.28-2.31,7.72v7.66c0,3.39.78,5.96,2.31,7.64,1.51,1.67,3.7,2.48,6.69,2.48,1.79,0,3.38-.34,4.72-1.02s2.48-1.62,3.36-2.81c.74-1,1.3-2.13,1.66-3.36v-11.46c-.07-2.04-.53-3.79-1.37-5.17-.83-1.37-1.92-2.38-3.34-3.08-1.44-.72-3.14-1.08-5.04-1.08Z"/>
        <path class="cls-4" d="M213.36,59.55c-4.35,0-7.77-1.11-10.17-3.29-2.44-2.22-3.68-5.39-3.68-9.41v-1.19c0-4.17,1.35-7.36,4-9.47,2.53-2.01,6.34-3.36,11.66-4.12l10.6-1.51c-.1-2.46-.78-4.31-2.01-5.47-1.37-1.29-3.67-1.94-6.86-1.94-2.7,0-5.21.39-7.44,1.15-2.3.79-4.36,1.72-6.13,2.76l-2.58,1.51,1.02-9.39.64-.38c1.1-.67,2.42-1.33,3.91-1.97,1.52-.65,3.27-1.2,5.21-1.63,1.95-.43,4.12-.65,6.44-.65,3.04,0,5.68.38,7.84,1.13,2.24.78,4.09,1.92,5.5,3.41,1.4,1.48,2.44,3.29,3.08,5.37.62,2,.93,4.26.93,6.7v27.53h-9.68l.12-4.15c-1.15,1.42-2.67,2.59-4.51,3.49-2.09,1.02-4.75,1.53-7.9,1.53ZM216.42,39.85c-3.48.5-5.11,1.32-5.87,1.93-.95.76-1.42,1.91-1.42,3.5v.66c0,1.67.47,2.89,1.44,3.72,1.02.88,2.66,1.32,4.89,1.32,2.07,0,3.84-.35,5.28-1.04,1.42-.69,2.58-1.62,3.45-2.77.69-.91,1.21-1.92,1.55-3v-5.68l-9.32,1.35Z"/>
        <path class="cls-4" d="M258.67,59.59c-3.37,0-6.36-.37-8.9-1.11-2.5-.72-4.61-1.53-6.29-2.39l-.72-.37-.97-9.75,2.46,1.28c1.92,1,4.06,1.88,6.37,2.62,2.24.72,4.84,1.08,7.72,1.08s4.89-.42,6.2-1.25c1.13-.71,1.65-1.71,1.65-3.14v-.45c0-.94-.2-1.7-.61-2.26-.29-.4-.96-1.02-2.54-1.67-1.45-.59-3.57-1.21-6.31-1.82-3.48-.76-6.3-1.69-8.35-2.75-2.21-1.13-3.82-2.59-4.8-4.32-.96-1.7-1.45-3.78-1.45-6.17v-.37c0-4,1.44-7.09,4.27-9.2,2.7-2,6.71-3.01,11.93-3.01,3.29,0,6.2.38,8.66,1.14,2.42.74,4.45,1.6,6.03,2.53l.64.38,1.02,9.35-2.57-1.5c-1.67-.98-3.63-1.8-5.81-2.45-2.16-.64-4.63-.97-7.36-.97-1.92,0-3.46.19-4.6.56-.98.32-1.68.75-2.06,1.28-.38.52-.57,1.15-.57,1.93v.33c0,.91.2,1.63.6,2.22.4.58,1.25,1.15,2.45,1.65,1.41.58,3.42,1.16,5.98,1.71,3.51.7,6.38,1.57,8.5,2.58,2.28,1.09,3.96,2.51,4.99,4.23,1.02,1.7,1.53,3.86,1.53,6.43v.7c0,4.28-1.54,7.57-4.57,9.78-2.89,2.1-7.1,3.17-12.54,3.17Z"/>
        <path class="cls-4" d="M300.47,59.71c-6.17,0-10.94-1.73-14.2-5.14-3.24-3.39-4.88-8.26-4.88-14.48v-6.14c0-6.2,1.65-11.05,4.91-14.43,3.27-3.39,8.04-5.11,14.18-5.11s10.94,1.72,14.2,5.11c3.24,3.38,4.89,8.23,4.89,14.42v6.14c0,6.22-1.64,11.09-4.88,14.48-3.26,3.41-8.04,5.14-14.2,5.14ZM300.47,22.85c-3.12,0-5.41.87-6.99,2.65-1.61,1.81-2.42,4.53-2.42,8.09v6.88c0,3.59.82,6.33,2.42,8.15,1.58,1.79,3.87,2.66,6.99,2.66s5.44-.87,7.01-2.66c1.6-1.82,2.41-4.57,2.41-8.16v-6.88c0-3.56-.81-6.28-2.41-8.09-1.57-1.78-3.86-2.64-7.01-2.64Z"/>
        <path class="cls-4" d="M329.86,58.68V25.32h-6.63v-8.32l6.88.03c-.16-.25-.31-.5-.46-.77-.76-1.4-1.15-3.03-1.15-4.84v-.21c0-3.39,1.23-6.15,3.66-8.21,2.35-2,5.96-3.01,10.73-3.01,2.16,0,4.14.2,5.87.59,1.69.38,3.29.87,4.73,1.45l.82.33,1.08,8.55-2.31-.85c-1.28-.47-2.57-.84-3.85-1.11-1.25-.27-2.69-.4-4.28-.4-1.85,0-3.32.23-4.37.68-.94.4-1.58.93-1.95,1.61-.41.75-.62,1.69-.62,2.8v.21c0,.82.11,1.6.31,2.33.08.28.17.56.25.83h16.55l-.97,8.31h-14.66v33.36h-9.63Z"/>
        <path class="cls-4" d="M376.99,59.51c-3.32,0-6.07-.52-8.16-1.55-2.21-1.09-3.83-2.76-4.82-4.97-.93-2.08-1.41-4.67-1.41-7.7v-20.86h-6.59v-8.35h6.62l-.04-10.44,9.76-1.26-.28,11.7h16.69l-.96,8.35h-15.61v20.08c0,2.22.47,3.83,1.39,4.79.91.94,2.6,1.42,5.02,1.42,1.5,0,2.95-.17,4.33-.49,1.38-.33,2.69-.8,3.9-1.41l2.46-1.23-1,9.26-.72.37c-1.4.71-3.05,1.28-4.89,1.69-1.83.41-3.74.61-5.68.61Z"/>
      </g>
      <g>
        <path class="cls-4" d="M77.08,85.39c-3.36,0-6.38-1.74-8.07-4.64l-18.52-31.88c-2.78-4.78-7.73-7.63-13.26-7.63-3.41,0-6.75,1.14-9.4,3.21-1.27.99-2.38,2.18-3.3,3.55l-6.61,9.81c-1.91,2.84-5.1,4.53-8.52,4.53h0c-.23,0-.46,0-.7-.02-3.27-.22-6.12-2.09-7.64-4.99-1.52-2.9-1.41-6.31.28-9.12.19-.3,5.09-8.22,6.62-11.01,1.45-2.65,5.87-9.76,5.92-9.83l5.83-9.68c3.2-5.31,9.03-8.61,15.23-8.61h3.66c6.27,0,12.13,3.37,15.3,8.78l31.24,53.5c1.73,2.96,1.7,6.62-.08,9.55-1.71,2.81-4.69,4.48-7.97,4.48Z"/>
        <path class="cls-4" d="M36.99,80.97c-5.4,0-9.79-4.39-9.79-9.79s4.39-9.79,9.79-9.79,9.79,4.39,9.79,9.79-4.39,9.79-9.79,9.79Z"/>
      </g>
      <text class="cls-3" transform="translate(111.96 83.7)"><tspan class="cls-1" x="0" y="0">W</tspan><tspan x="15.46" y="0">he</tspan><tspan class="cls-5" x="34.87" y="0">r</tspan><tspan x="40.69" y="0">e desi</tspan><tspan class="cls-9" x="84.95" y="0">g</tspan><tspan class="cls-2" x="95.11" y="0">n meets b</tspan><tspan class="cls-1" x="170.67" y="0">r</tspan><tspan class="cls-2" x="176.58" y="0">and st</tspan><tspan class="cls-1" x="223.27" y="0">r</tspan><tspan class="cls-8" x="229.18" y="0">a</tspan><tspan class="cls-10" x="237.97" y="0">t</tspan><tspan class="cls-7" x="243.94" y="0">eg</tspan><tspan class="cls-6" x="263.42" y="0">y</tspan><tspan class="cls-2" x="271.36" y="0">.</tspan></text>
    </g>
  </g>
</svg>