<?xml version="1.0" encoding="UTF-8"?>
<svg id="Calque_2" data-name="Calque 2" xmlns="http://www.w3.org/2000/svg" viewBox="0 0 627.27 126.49">
  <defs>
    <style>
      .cls-1 {
        fill: #212b39;
      }

      .cls-2 {
        fill: #fc4f50;
      }
    </style>
  </defs>
  <g id="Calque_1-2" data-name="Calque 1">
    <g>
      <g>
        <path class="cls-1" d="M201.92,110.12c-6.76,0-12.07-1.7-15.76-5.06-3.73-3.4-5.63-8.26-5.63-14.47v-1.92c0-6.42,2.05-11.31,6.1-14.53,3.94-3.14,9.93-5.24,18.32-6.44l17.87-2.54c-.05-4.63-1.24-8.09-3.54-10.26-2.37-2.24-6.3-3.37-11.67-3.37-4.45,0-8.58.64-12.27,1.91-3.75,1.29-7.13,2.8-10.03,4.51l-2.57,1.51,1.4-12.85.63-.38c1.74-1.05,3.82-2.1,6.18-3.11,2.39-1.03,5.16-1.89,8.22-2.57,3.07-.68,6.5-1.03,10.17-1.03,4.79,0,8.93.6,12.32,1.77,3.46,1.2,6.32,2.97,8.49,5.26,2.16,2.28,3.76,5.07,4.75,8.28.97,3.14,1.46,6.67,1.46,10.52v43.39h-13.72l.26-8.83c-.3.51-.62,1.01-.97,1.5-1.84,2.63-4.43,4.77-7.7,6.36-3.24,1.57-7.39,2.37-12.32,2.37ZM206.7,78.42c-4.66.67-7.98,1.78-9.88,3.3-1.76,1.41-2.62,3.49-2.62,6.35v1.06c0,2.97.86,5.16,2.63,6.69,1.81,1.56,4.66,2.35,8.47,2.35,3.47,0,6.46-.6,8.89-1.77,2.42-1.17,4.4-2.76,5.89-4.72,1.2-1.59,2.1-3.35,2.68-5.23v-10.34l-16.05,2.32Z"/>
        <path class="cls-1" d="M275.96,110.12c-8.2,0-14.57-2.61-18.91-7.76-4.28-5.07-6.45-12.49-6.45-22.05v-10.67c0-9.6,2.19-17.07,6.52-22.21,4.39-5.21,10.89-7.86,19.31-7.86,4.18,0,7.87.73,10.97,2.16,3.13,1.45,5.71,3.51,7.67,6.13.43.58.84,1.19,1.21,1.82l-.13-9.19v-22.6h13.67v90.83h-13.78l.26-8.77c-.32.54-.67,1.07-1.04,1.59-1.88,2.62-4.44,4.73-7.59,6.27-3.13,1.53-7.07,2.31-11.7,2.31ZM279.73,51.32c-5.08,0-8.83,1.4-11.45,4.28-2.62,2.88-3.95,7.27-3.95,13.04v12.33c0,5.69,1.33,10.03,3.95,12.91,2.62,2.88,6.37,4.28,11.45,4.28,3.02,0,5.72-.58,8.01-1.73s4.22-2.76,5.73-4.79c1.29-1.73,2.25-3.69,2.85-5.82v-18.57c-.12-3.47-.91-6.45-2.33-8.8-1.41-2.33-3.35-4.11-5.75-5.3-2.45-1.22-5.32-1.83-8.51-1.83Z"/>
        <path class="cls-1" d="M345.23,110.12c-6.76,0-12.07-1.7-15.76-5.06-3.73-3.4-5.63-8.26-5.63-14.47v-1.92c0-6.42,2.05-11.31,6.1-14.53,3.94-3.14,9.93-5.24,18.32-6.44l17.87-2.54c-.05-4.63-1.24-8.09-3.54-10.26-2.37-2.24-6.3-3.37-11.67-3.37-4.45,0-8.58.64-12.27,1.91-3.75,1.29-7.13,2.81-10.03,4.51l-2.58,1.51,1.4-12.85.63-.38c1.73-1.05,3.81-2.1,6.18-3.11,2.39-1.03,5.16-1.89,8.22-2.57,3.07-.68,6.5-1.03,10.17-1.03,4.79,0,8.93.6,12.32,1.77,3.46,1.2,6.32,2.97,8.49,5.26,2.16,2.28,3.76,5.07,4.75,8.28.97,3.13,1.46,6.67,1.46,10.52v43.39h-13.72l.26-8.83c-.3.51-.62,1.01-.97,1.49-1.84,2.63-4.43,4.77-7.7,6.36-3.24,1.57-7.39,2.37-12.32,2.37ZM350.01,78.42c-4.66.67-7.98,1.78-9.88,3.3-1.76,1.41-2.62,3.49-2.62,6.35v1.06c0,2.97.86,5.16,2.63,6.69,1.81,1.56,4.66,2.35,8.47,2.35,3.47,0,6.46-.6,8.89-1.77,2.42-1.17,4.4-2.76,5.89-4.72,1.2-1.59,2.1-3.35,2.68-5.23v-10.34l-16.05,2.32Z"/>
        <path class="cls-1" d="M418.14,110.18c-5.33,0-10.07-.59-14.07-1.75-3.96-1.15-7.31-2.42-9.95-3.79l-.72-.37-1.35-13.51,2.46,1.28c3.14,1.63,6.64,3.07,10.4,4.28,3.7,1.18,7.97,1.78,12.7,1.78s8.2-.73,10.47-2.15c2.07-1.31,3.08-3.21,3.08-5.82v-.73c0-1.7-.38-3.1-1.14-4.17-.78-1.08-2.29-2.09-4.49-3-2.38-.98-5.85-1.98-10.3-2.97-5.54-1.22-9.99-2.68-13.22-4.34-3.39-1.74-5.86-3.96-7.35-6.59-1.47-2.6-2.22-5.8-2.22-9.49v-.6c0-6.13,2.19-10.86,6.51-14.06,4.18-3.1,10.46-4.67,18.66-4.67,5.21,0,9.81.6,13.67,1.79,3.83,1.18,7.03,2.52,9.5,3.99l.64.38,1.4,12.79-2.57-1.5c-2.76-1.61-5.97-2.97-9.55-4.03-3.56-1.06-7.63-1.59-12.1-1.59-3.18,0-5.77.32-7.68.95-1.77.58-3.04,1.38-3.77,2.38-.74,1-1.1,2.2-1.1,3.65v.53c0,1.65.37,2.99,1.13,4.09.76,1.1,2.22,2.1,4.34,2.98,2.32.96,5.61,1.9,9.79,2.8,5.6,1.12,10.14,2.5,13.49,4.09,3.5,1.67,6.07,3.84,7.64,6.45,1.55,2.59,2.33,5.91,2.33,9.88v1.13c0,6.58-2.35,11.62-6.98,15-4.48,3.27-11.09,4.93-19.64,4.93Z"/>
        <path class="cls-1" d="M485.42,110.38c-9.66,0-17.13-2.69-22.2-7.99-5.05-5.28-7.61-12.91-7.61-22.68v-9.88c0-9.73,2.57-17.33,7.65-22.59,5.09-5.27,12.54-7.95,22.16-7.95s17.13,2.68,22.2,7.95c5.05,5.26,7.61,12.86,7.61,22.58v9.88c0,9.77-2.56,17.4-7.61,22.68-5.07,5.3-12.54,7.99-22.2,7.99ZM485.42,51.06c-5.3,0-9.2,1.49-11.94,4.57-2.74,3.08-4.13,7.66-4.13,13.62v11.07c0,6,1.39,10.62,4.13,13.72,2.73,3.09,6.63,4.6,11.93,4.6s9.25-1.5,11.96-4.59c2.72-3.1,4.1-7.72,4.1-13.73v-11.07c0-5.96-1.38-10.54-4.1-13.62-2.71-3.07-6.62-4.56-11.97-4.56Z"/>
        <path class="cls-1" d="M533.64,108.73v-53.69h-10.67v-11.56l11.93.05c-.61-.77-1.18-1.64-1.71-2.6-1.16-2.11-1.74-4.59-1.74-7.35v-.33c0-5.17,1.87-9.38,5.57-12.51,3.62-3.07,9.23-4.63,16.68-4.63,3.41,0,6.52.31,9.25.93,2.69.61,5.21,1.38,7.48,2.29l.82.33,1.48,11.74-2.31-.85c-2.08-.77-4.21-1.38-6.32-1.83-2.07-.44-4.45-.66-7.08-.66-3.09,0-5.58.39-7.4,1.17-1.71.73-2.88,1.71-3.58,2.99-.73,1.34-1.11,3-1.11,4.95v.33c0,1.4.18,2.74.54,4,.2.7.41,1.36.63,1.99h26.26l-1.34,11.55h-23.7v53.69h-13.67Z"/>
        <path class="cls-1" d="M608.58,110.05c-5.2,0-9.48-.81-12.73-2.41-3.36-1.65-5.82-4.2-7.33-7.56-1.45-3.23-2.19-7.27-2.19-12.02v-34.49h-10.61v-11.62h10.66l-.06-16.92,13.85-1.79-.44,18.71h26.77l-1.34,11.62h-25.23v33.24c0,3.82.84,6.62,2.5,8.34,1.64,1.7,4.58,2.56,8.73,2.56,2.48,0,4.9-.28,7.17-.82,2.28-.54,4.46-1.33,6.47-2.34l2.46-1.23-1.38,12.75-.72.37c-2.18,1.11-4.76,2.01-7.65,2.65-2.88.64-5.89.96-8.94.96Z"/>
      </g>
      <g>
        <path class="cls-2" d="M125.89,126.49c-6.07,0-11.52-3.13-14.57-8.38l-29.81-51.3c-4.13-7.12-11.52-11.37-19.76-11.37-5.08,0-10.06,1.7-14.01,4.79-1.89,1.48-3.55,3.26-4.92,5.29l-10.63,15.78c-3.42,5.07-9.11,8.1-15.23,8.1h0c-.41,0-.83-.01-1.25-.04-5.9-.4-11.06-3.77-13.79-9.01-2.74-5.24-2.55-11.4.5-16.47.31-.5,8.19-13.2,10.62-17.66,2.35-4.3,9.51-15.8,9.58-15.92l9.36-15.56C37.46,5.65,47.45,0,58.06,0h5.89c10.74,0,20.78,5.76,26.2,15.04l50.28,86.11c3.12,5.34,3.06,11.95-.15,17.24-3.08,5.07-8.46,8.09-14.39,8.09Z"/>
        <path class="cls-2" d="M61.37,117.54c-8.69,0-15.76-7.07-15.76-15.76s7.07-15.76,15.76-15.76,15.76,7.07,15.76,15.76-7.07,15.76-15.76,15.76Z"/>
      </g>
    </g>
  </g>
</svg>