<?xml version="1.0" encoding="UTF-8"?>
<svg id="Calque_2" data-name="Calque 2" xmlns="http://www.w3.org/2000/svg" viewBox="0 0 751.62 177.36">
  <defs>
    <style>
      .cls-1 {
        fill: #e5e5e5;
      }
    </style>
  </defs>
  <g id="Calque_1-2" data-name="Calque 1">
    <g>
      <g>
        <path class="cls-1" d="M289.46,70.4c-2.35-2.47-5.41-4.37-9.2-5.68-3.79-1.31-8.38-1.97-13.79-1.97-4.17,0-8,.39-11.48,1.16-3.48.77-6.57,1.74-9.27,2.9-2.71,1.16-5.04,2.33-6.99,3.52l-1.16,10.67c3.5-2.06,7.51-3.86,12.02-5.41,4.51-1.55,9.47-2.32,14.88-2.32,6.75,0,11.68,1.47,14.8,4.4,3.12,2.94,4.68,7.47,4.68,13.6l-.02,1.15-22.31,3.18c-9.38,1.34-16.22,3.72-20.52,7.15-4.3,3.43-6.45,8.62-6.45,15.57v2.24c0,6.75,2,11.94,5.99,15.57,3.99,3.63,9.72,5.45,17.2,5.45,5.51,0,10.05-.86,13.6-2.59,3.55-1.73,6.32-4,8.31-6.84,1.98-2.83,3.34-5.9,4.06-9.2h.5l-.5,17h12.44v-48.84c0-4.33-.54-8.24-1.62-11.75-1.08-3.5-2.8-6.49-5.14-8.96ZM280.38,122.88c-1.91,2.52-4.4,4.53-7.5,6.03-3.09,1.5-6.8,2.24-11.13,2.24-4.9,0-8.57-1.05-11.01-3.17-2.45-2.11-3.67-5.15-3.67-9.12v-1.24c0-3.86,1.24-6.79,3.71-8.77,2.47-1.98,6.59-3.39,12.37-4.21l20.71-2.99v14.3c-.73,2.51-1.89,4.82-3.48,6.93Z"/>
        <path class="cls-1" d="M369.4,62.13l.28,19.71h-.44c-.72-3.86-2.14-7.21-4.25-10.05-2.11-2.83-4.87-5.03-8.27-6.61-3.4-1.57-7.42-2.36-12.06-2.36-9.33,0-16.38,2.85-21.17,8.54-4.79,5.69-7.19,13.95-7.19,24.77v12.44c0,10.77,2.37,18.96,7.11,24.58,4.74,5.62,11.64,8.42,20.71,8.42,5.15,0,9.44-.84,12.87-2.51,3.43-1.67,6.16-3.93,8.19-6.76,2.03-2.83,3.41-5.95,4.13-9.35h.5l-.5,17h12.52V37.56h-12.44v24.57ZM365.96,122.84c-1.93,2.6-4.37,4.64-7.3,6.11-2.94,1.47-6.31,2.2-10.12,2.2-6.39,0-11.27-1.85-14.64-5.56-3.38-3.71-5.06-9.12-5.06-16.23v-14.37c0-7.21,1.69-12.67,5.06-16.38,3.37-3.71,8.26-5.56,14.64-5.56,4.02,0,7.59.77,10.7,2.32,3.12,1.55,5.59,3.83,7.42,6.84,1.83,3.01,2.82,6.74,2.98,11.17v21.89c-.76,2.8-1.99,5.33-3.67,7.6Z"/>
        <path class="cls-1" d="M456.54,70.4c-2.35-2.47-5.41-4.37-9.2-5.68-3.79-1.31-8.38-1.97-13.79-1.97-4.17,0-8,.39-11.48,1.16-3.48.77-6.57,1.74-9.27,2.9-2.71,1.16-5.04,2.33-6.99,3.52l-1.16,10.67c3.5-2.06,7.51-3.86,12.02-5.41,4.51-1.55,9.47-2.32,14.88-2.32,6.75,0,11.68,1.47,14.8,4.4,3.12,2.94,4.68,7.47,4.68,13.6l-.02,1.15-22.31,3.18c-9.38,1.34-16.22,3.72-20.52,7.15-4.3,3.43-6.45,8.62-6.45,15.57v2.24c0,6.75,2,11.94,5.99,15.57,3.99,3.63,9.72,5.45,17.19,5.45,5.51,0,10.05-.86,13.6-2.59,3.55-1.73,6.32-4,8.31-6.84,1.98-2.83,3.34-5.9,4.06-9.2h.5l-.5,17h12.44v-48.84c0-4.33-.54-8.24-1.62-11.75-1.08-3.5-2.8-6.49-5.14-8.96ZM447.45,122.88c-1.91,2.52-4.4,4.53-7.5,6.03-3.09,1.5-6.8,2.24-11.13,2.24-4.9,0-8.57-1.05-11.01-3.17-2.45-2.11-3.67-5.15-3.67-9.12v-1.24c0-3.86,1.24-6.79,3.71-8.77,2.47-1.98,6.59-3.39,12.37-4.21l20.71-2.99v14.3c-.73,2.51-1.89,4.82-3.48,6.93Z"/>
        <path class="cls-1" d="M528.56,101.39c-3.79-1.8-8.9-3.35-15.34-4.64-5-1.08-8.9-2.2-11.71-3.36-2.81-1.16-4.75-2.52-5.83-4.1-1.08-1.57-1.62-3.49-1.62-5.76v-.62c0-2.06.54-3.83,1.62-5.29,1.08-1.47,2.83-2.6,5.26-3.4,2.42-.8,5.59-1.2,9.51-1.2,5.41,0,10.28.64,14.61,1.93,4.33,1.29,8.16,2.91,11.51,4.87l-1.16-10.59c-2.78-1.65-6.35-3.14-10.7-4.48-4.35-1.34-9.49-2.01-15.42-2.01-9.22,0-16.13,1.7-20.71,5.1-4.59,3.4-6.88,8.4-6.88,14.99v.7c0,4.02.78,7.42,2.36,10.2,1.57,2.78,4.19,5.11,7.84,6.99,3.66,1.88,8.66,3.52,14.99,4.91,5.31,1.19,9.4,2.37,12.29,3.56,2.88,1.19,4.88,2.55,5.99,4.1,1.11,1.55,1.66,3.5,1.66,5.87v.85c0,3.66-1.47,6.41-4.4,8.27-2.94,1.85-7.32,2.78-13.14,2.78s-10.83-.72-15.34-2.16c-4.51-1.44-8.64-3.14-12.4-5.1l1.16,11.59c2.99,1.55,6.75,2.98,11.28,4.29,4.53,1.31,9.84,1.97,15.92,1.97,9.63,0,16.92-1.8,21.87-5.41,4.95-3.61,7.42-8.97,7.42-16.07v-1.31c0-4.33-.82-7.87-2.47-10.63-1.65-2.76-4.37-5.04-8.15-6.84Z"/>
        <path class="cls-1" d="M588.33,62.52c-10.77,0-18.96,2.91-24.58,8.73-5.62,5.82-8.42,14.19-8.42,25.12v11.51c0,10.97,2.79,19.38,8.38,25.23,5.59,5.85,13.79,8.77,24.61,8.77s19.02-2.92,24.61-8.77c5.59-5.85,8.38-14.26,8.38-25.23v-11.51c0-10.92-2.79-19.29-8.38-25.12-5.59-5.82-13.79-8.73-24.61-8.73ZM608.81,108.58c0,7.47-1.74,13.19-5.22,17.16-3.48,3.97-8.57,5.95-15.26,5.95s-11.72-1.98-15.22-5.95c-3.5-3.97-5.26-9.69-5.26-17.16v-12.91c0-7.42,1.75-13.1,5.26-17.04,3.5-3.94,8.58-5.91,15.22-5.91s11.79,1.97,15.26,5.91c3.48,3.94,5.22,9.62,5.22,17.04v12.91Z"/>
        <path class="cls-1" d="M657.46,51.66c1-1.83,2.68-3.25,5.02-4.25,2.34-1,5.45-1.51,9.31-1.51,3.19,0,6.07.27,8.62.81,2.55.54,5.09,1.27,7.61,2.2l-1.24-9.81c-2.58-1.03-5.4-1.89-8.46-2.59-3.07-.7-6.53-1.04-10.39-1.04-8.3,0-14.4,1.66-18.32,4.99-3.92,3.32-5.87,7.74-5.87,13.25v.39c0,2.94.6,5.51,1.82,7.73,1.21,2.22,2.61,3.94,4.21,5.18v.46l-15.92-.07v9.97h12.44v62.6h12.44v-62.6h27.82l1.16-9.97h-29.85c-.44-1.12-.85-2.3-1.22-3.59-.46-1.62-.7-3.34-.7-5.14v-.39c0-2.58.5-4.78,1.51-6.61Z"/>
        <path class="cls-1" d="M743.7,129.6c-2.81.67-5.73,1-8.77,1-5.36,0-9.17-1.17-11.44-3.52-2.27-2.34-3.4-5.99-3.4-10.94v-40.5h29.6l1.16-10.05h-31.04l.51-21.56-12.6,1.62.07,19.94h-12.44v10.05h12.36v41.96c0,5.31.8,9.74,2.4,13.29,1.6,3.56,4.17,6.21,7.73,7.96,3.55,1.75,8.24,2.63,14.07,2.63,3.45,0,6.8-.36,10.05-1.08,3.25-.72,6.08-1.7,8.5-2.94l1.16-10.74c-2.47,1.24-5.11,2.19-7.92,2.86Z"/>
      </g>
      <g>
        <path class="cls-1" d="M172.6,177.36c-9.72,0-18.09-4.82-22.97-13.22l-37.14-63.93c-5.19-8.93-14.61-14.57-24.94-14.91-.33-.01-.67-.02-1-.02-9.96,0-19.29,4.94-24.88,13.24l-11.17,16.58c-5.33,7.9-14.19,12.62-23.72,12.62-.65,0-1.3-.02-1.94-.07-9.44-.64-17.37-5.82-21.75-14.22-4.37-8.39-4.09-17.84.78-25.95,0,0,.01-.02.02-.03.44-.72,10.93-17.63,14.13-23.49,2.19-4.01,8.02-13.6,12.82-21.32.08-.12.16-.25.23-.38l12.39-20.59C51.5,8.31,66.19,0,81.8,0h7.88c15.8,0,30.57,8.48,38.54,22.13l67.31,115.28c4.92,8.43,4.83,18.85-.24,27.19-4.93,8.11-13.2,12.77-22.69,12.77h0Z"/>
        <path class="cls-1" d="M86.22,161.37c-11.63,0-21.1-9.46-21.1-21.09s9.46-21.1,21.1-21.1,21.09,9.46,21.09,21.1-9.46,21.09-21.09,21.09Z"/>
      </g>
    </g>
  </g>
</svg>